<?xml version="1.0" encoding="UTF-8"?>
<svg xmlns="http://www.w3.org/2000/svg" xmlns:xlink="http://www.w3.org/1999/xlink" width="18px" height="18px" viewBox="0 0 18 18" version="1.1">
<g id="surface1">
<path style=" stroke:none;fill-rule:nonzero;fill:rgb(0%,0%,0%);fill-opacity:1;" d="M 15.921875 13.792969 C 15.664062 14.390625 15.355469 14.941406 15 15.449219 C 14.515625 16.140625 14.117188 16.621094 13.8125 16.886719 C 13.335938 17.320312 12.828125 17.542969 12.285156 17.558594 C 11.894531 17.558594 11.421875 17.445312 10.875 17.222656 C 10.324219 16.996094 9.816406 16.886719 9.355469 16.886719 C 8.871094 16.886719 8.351562 16.996094 7.792969 17.222656 C 7.238281 17.445312 6.789062 17.5625 6.445312 17.574219 C 5.921875 17.597656 5.402344 17.367188 4.882812 16.886719 C 4.550781 16.597656 4.136719 16.101562 3.640625 15.398438 C 3.109375 14.648438 2.671875 13.78125 2.328125 12.789062 C 1.960938 11.71875 1.777344 10.679688 1.777344 9.679688 C 1.777344 8.527344 2.023438 7.535156 2.523438 6.707031 C 2.914062 6.039062 3.433594 5.511719 4.082031 5.125 C 4.734375 4.738281 5.4375 4.542969 6.195312 4.53125 C 6.609375 4.53125 7.152344 4.65625 7.828125 4.910156 C 8.503906 5.164062 8.9375 5.289062 9.125 5.289062 C 9.265625 5.289062 9.746094 5.140625 10.5625 4.84375 C 11.332031 4.566406 11.984375 4.449219 12.515625 4.496094 C 13.957031 4.613281 15.042969 5.179688 15.765625 6.207031 C 14.472656 6.988281 13.835938 8.082031 13.847656 9.488281 C 13.859375 10.582031 14.257812 11.492188 15.035156 12.214844 C 15.390625 12.550781 15.785156 12.8125 16.222656 12.996094 C 16.128906 13.273438 16.027344 13.535156 15.921875 13.792969 Z M 12.613281 0.765625 C 12.613281 1.625 12.296875 2.425781 11.671875 3.167969 C 10.917969 4.046875 10.007812 4.558594 9.019531 4.476562 C 9.003906 4.371094 9 4.261719 9 4.152344 C 9 3.328125 9.359375 2.445312 9.996094 1.726562 C 10.3125 1.363281 10.714844 1.058594 11.207031 0.816406 C 11.695312 0.578125 12.160156 0.445312 12.59375 0.421875 C 12.605469 0.539062 12.613281 0.652344 12.613281 0.765625 Z M 12.613281 0.765625 "/>
</g>
</svg>
