<?xml version="1.0" encoding="UTF-8"?>
<svg xmlns="http://www.w3.org/2000/svg" xmlns:xlink="http://www.w3.org/1999/xlink" width="235px" height="29px" viewBox="0 0 233 29" version="1.1">
<g id="surface1">
<path style=" stroke:none;fill-rule:nonzero;fill:rgb(0%,32.156863%,80%);fill-opacity:1;" d="M 127.921875 11.710938 C 127.921875 15.175781 129.53125 17.953125 135.824219 19.171875 C 139.578125 19.957031 140.363281 20.566406 140.363281 21.824219 C 140.363281 23.078125 139.578125 23.832031 136.910156 23.832031 C 133.714844 23.773438 130.582031 22.921875 127.792969 21.355469 L 127.792969 27.027344 C 129.6875 27.957031 132.191406 29 136.855469 29 C 143.433594 29 146.046875 26.0625 146.046875 21.683594 M 146.046875 21.683594 C 146.046875 17.558594 143.867188 15.625 137.714844 14.296875 C 134.316406 13.542969 133.492188 12.789062 133.492188 11.699219 C 133.492188 10.335938 134.710938 9.765625 136.945312 9.765625 C 139.664062 9.765625 142.34375 10.589844 144.882812 11.738281 L 144.882812 6.332031 C 142.449219 5.21875 139.792969 4.667969 137.117188 4.71875 C 131.039062 4.71875 127.894531 7.371094 127.894531 11.710938 "/>
<path style=" stroke:none;fill-rule:nonzero;fill:rgb(0%,32.156863%,80%);fill-opacity:1;" d="M 212.441406 5.078125 L 212.441406 28.640625 L 217.445312 28.640625 L 217.445312 10.671875 L 219.558594 15.445312 L 226.636719 28.640625 L 232.929688 28.640625 L 232.929688 5.078125 L 227.921875 5.078125 L 227.921875 20.285156 L 226.027344 15.871094 L 220.34375 5.078125 Z M 212.441406 5.078125 "/>
<path style=" stroke:none;fill-rule:nonzero;fill:rgb(0%,32.156863%,80%);fill-opacity:1;" d="M 175.136719 5.078125 L 180.605469 5.078125 L 180.605469 28.640625 L 175.136719 28.640625 Z M 175.136719 5.078125 "/>
<path style=" stroke:none;fill-rule:nonzero;fill:rgb(0%,32.156863%,80%);fill-opacity:1;" d="M 168.824219 21.683594 C 168.824219 17.558594 166.644531 15.625 160.492188 14.296875 C 157.09375 13.542969 156.273438 12.789062 156.273438 11.699219 C 156.273438 10.335938 157.488281 9.765625 159.722656 9.765625 C 162.441406 9.765625 165.121094 10.589844 167.664062 11.738281 L 167.664062 6.332031 C 165.226562 5.21875 162.574219 4.667969 159.894531 4.71875 C 153.816406 4.71875 150.671875 7.371094 150.671875 11.710938 C 150.671875 15.175781 152.28125 17.953125 158.570312 19.171875 C 162.324219 19.957031 163.109375 20.566406 163.109375 21.824219 C 163.109375 23.078125 162.324219 23.832031 159.660156 23.832031 C 156.460938 23.773438 153.332031 22.921875 150.542969 21.355469 L 150.542969 27.027344 C 152.4375 27.957031 154.9375 29 159.601562 29 C 166.183594 29 168.792969 26.0625 168.792969 21.683594 "/>
<path style=" stroke:none;fill-rule:nonzero;fill:rgb(0%,32.156863%,80%);fill-opacity:1;" d="M 85.429688 5.078125 L 85.429688 28.640625 L 96.675781 28.640625 L 98.445312 23.550781 L 90.9375 23.550781 L 90.9375 5.078125 Z M 85.429688 5.078125 "/>
<path style=" stroke:none;fill-rule:nonzero;fill:rgb(0%,32.156863%,80%);fill-opacity:1;" d="M 63.214844 5.078125 L 63.214844 10.171875 L 69.292969 10.171875 L 69.292969 28.640625 L 74.800781 28.640625 L 74.800781 10.171875 L 81.304688 10.171875 L 81.304688 5.078125 Z M 63.214844 5.078125 "/>
<path style=" stroke:none;fill-rule:nonzero;fill:rgb(0%,32.156863%,80%);fill-opacity:1;" d="M 55.230469 5.078125 L 48.015625 5.078125 L 39.820312 28.640625 L 46.097656 28.640625 L 47.246094 24.671875 C 50.109375 25.519531 53.15625 25.519531 56.019531 24.671875 L 57.183594 28.640625 L 63.4375 28.640625 Z M 51.625 20.425781 C 50.601562 20.425781 49.585938 20.28125 48.605469 19.992188 L 51.625 9.703125 L 54.644531 19.992188 C 53.664062 20.28125 52.648438 20.425781 51.625 20.425781 Z M 51.625 20.425781 "/>
<path style=" stroke:none;fill-rule:nonzero;fill:rgb(0%,32.156863%,80%);fill-opacity:1;" d="M 116.058594 5.078125 L 108.84375 5.078125 L 100.644531 28.640625 L 106.902344 28.640625 L 108.070312 24.671875 C 110.929688 25.515625 113.96875 25.515625 116.828125 24.671875 L 117.992188 28.640625 L 124.246094 28.640625 Z M 112.449219 20.425781 C 111.429688 20.425781 110.410156 20.28125 109.429688 19.992188 L 112.449219 9.703125 L 115.46875 19.992188 C 114.488281 20.28125 113.472656 20.425781 112.449219 20.425781 Z M 112.449219 20.425781 "/>
<path style=" stroke:none;fill-rule:nonzero;fill:rgb(0%,32.156863%,80%);fill-opacity:1;" d="M 200.316406 5.078125 L 193.101562 5.078125 L 184.90625 28.640625 L 191.160156 28.640625 L 192.332031 24.671875 C 195.191406 25.515625 198.230469 25.515625 201.089844 24.671875 L 202.25 28.640625 L 208.507812 28.640625 Z M 196.710938 20.425781 C 195.6875 20.425781 194.671875 20.28125 193.691406 19.992188 L 196.710938 9.703125 L 199.730469 19.992188 C 198.75 20.28125 197.730469 20.425781 196.710938 20.425781 Z M 196.710938 20.425781 "/>
<path style=" stroke:none;fill-rule:nonzero;fill:rgb(0%,32.156863%,80%);fill-opacity:1;" d="M 8.285156 13.363281 C 8.136719 13.1875 7.910156 13.097656 7.683594 13.121094 C 7.488281 13.15625 7.328125 13.285156 7.25 13.46875 L 0.136719 27.730469 C 0.0390625 27.925781 0.0507812 28.15625 0.164062 28.339844 C 0.277344 28.523438 0.476562 28.636719 0.695312 28.636719 L 10.597656 28.636719 C 10.835938 28.640625 11.054688 28.503906 11.152344 28.289062 C 13.234375 23.980469 11.945312 17.289062 8.285156 13.363281 Z M 8.285156 13.363281 "/>
<path style=" stroke:none;fill-rule:nonzero;fill:rgb(0%,32.156863%,80%);fill-opacity:1;" d="M 28.570312 27.734375 C 28.4375 27.46875 15.242188 0.984375 14.917969 0.328125 C 14.832031 0.140625 14.648438 0.0117188 14.445312 0 L 14.421875 0 C 14.1875 0.0117188 13.976562 0.144531 13.859375 0.351562 C 10.285156 6.035156 9.878906 12.898438 12.777344 18.707031 L 17.550781 28.289062 C 17.65625 28.503906 17.871094 28.640625 18.109375 28.640625 L 28.011719 28.640625 C 28.230469 28.640625 28.429688 28.527344 28.542969 28.34375 C 28.65625 28.160156 28.667969 27.929688 28.570312 27.734375 Z M 28.570312 27.734375 "/>
</g>
</svg>
