<?xml version="1.0" encoding="UTF-8"?>
<svg xmlns="http://www.w3.org/2000/svg" xmlns:xlink="http://www.w3.org/1999/xlink" width="18px" height="18px" viewBox="0 0 18 18" version="1.1">
<g id="surface1">
<path style=" stroke:none;fill-rule:evenodd;fill:rgb(25.882353%,52.156863%,95.686275%);fill-opacity:1;" d="M 17.640625 9.203125 C 17.640625 8.566406 17.582031 7.953125 17.476562 7.363281 L 9 7.363281 L 9 10.84375 L 13.84375 10.84375 C 13.636719 11.96875 13 12.921875 12.046875 13.5625 L 12.046875 15.820312 L 14.957031 15.820312 C 16.65625 14.253906 17.640625 11.945312 17.640625 9.203125 Z M 17.640625 9.203125 "/>
<path style=" stroke:none;fill-rule:evenodd;fill:rgb(20.392157%,65.882353%,32.54902%);fill-opacity:1;" d="M 9 18 C 11.429688 18 13.46875 17.195312 14.957031 15.820312 L 12.046875 13.5625 C 11.242188 14.101562 10.210938 14.421875 9 14.421875 C 6.65625 14.421875 4.671875 12.835938 3.964844 10.710938 L 0.957031 10.710938 L 0.957031 13.042969 C 2.4375 15.984375 5.480469 18 9 18 Z M 9 18 "/>
<path style=" stroke:none;fill-rule:evenodd;fill:rgb(98.431373%,73.72549%,1.960784%);fill-opacity:1;" d="M 3.964844 10.710938 C 3.785156 10.171875 3.683594 9.59375 3.683594 9 C 3.683594 8.40625 3.785156 7.828125 3.964844 7.289062 L 3.964844 4.957031 L 0.957031 4.957031 C 0.347656 6.171875 0 7.546875 0 9 C 0 10.453125 0.347656 11.828125 0.957031 13.042969 Z M 3.964844 10.710938 "/>
<path style=" stroke:none;fill-rule:evenodd;fill:rgb(91.764706%,26.27451%,20.784314%);fill-opacity:1;" d="M 9 3.578125 C 10.320312 3.578125 11.507812 4.035156 12.441406 4.925781 L 15.023438 2.34375 C 13.464844 0.890625 11.425781 0 9 0 C 5.480469 0 2.4375 2.015625 0.957031 4.957031 L 3.964844 7.289062 C 4.671875 5.164062 6.65625 3.578125 9 3.578125 Z M 9 3.578125 "/>
</g>
</svg>
