<?xml version="1.0" encoding="UTF-8"?>
<svg xmlns="http://www.w3.org/2000/svg" xmlns:xlink="http://www.w3.org/1999/xlink" width="18px" height="18px" viewBox="0 0 18 18" version="1.1">
<g id="surface1">
<path style=" stroke:none;fill-rule:nonzero;fill:rgb(87.843137%,11.764706%,35.294118%);fill-opacity:1;" d="M 4.070312 11.242188 C 4.070312 12.226562 3.269531 13.027344 2.285156 13.027344 C 1.300781 13.027344 0.5 12.226562 0.5 11.242188 C 0.5 10.261719 1.300781 9.457031 2.285156 9.457031 L 4.070312 9.457031 Z M 4.070312 11.242188 "/>
<path style=" stroke:none;fill-rule:nonzero;fill:rgb(87.843137%,11.764706%,35.294118%);fill-opacity:1;" d="M 4.972656 11.242188 C 4.972656 10.261719 5.773438 9.457031 6.757812 9.457031 C 7.738281 9.457031 8.542969 10.261719 8.542969 11.242188 L 8.542969 15.714844 C 8.542969 16.699219 7.738281 17.5 6.757812 17.5 C 5.773438 17.5 4.972656 16.699219 4.972656 15.714844 Z M 4.972656 11.242188 "/>
<path style=" stroke:none;fill-rule:nonzero;fill:rgb(21.176471%,77.254902%,94.117647%);fill-opacity:1;" d="M 6.757812 4.070312 C 5.773438 4.070312 4.972656 3.269531 4.972656 2.285156 C 4.972656 1.300781 5.773438 0.5 6.757812 0.5 C 7.738281 0.5 8.542969 1.300781 8.542969 2.285156 L 8.542969 4.070312 Z M 6.757812 4.070312 "/>
<path style=" stroke:none;fill-rule:nonzero;fill:rgb(21.176471%,77.254902%,94.117647%);fill-opacity:1;" d="M 6.757812 4.972656 C 7.738281 4.972656 8.542969 5.773438 8.542969 6.757812 C 8.542969 7.738281 7.738281 8.542969 6.757812 8.542969 L 2.285156 8.542969 C 1.300781 8.542969 0.5 7.738281 0.5 6.757812 C 0.5 5.773438 1.300781 4.972656 2.285156 4.972656 Z M 6.757812 4.972656 "/>
<path style=" stroke:none;fill-rule:nonzero;fill:rgb(18.039216%,71.372549%,49.019608%);fill-opacity:1;" d="M 13.929688 6.757812 C 13.929688 5.773438 14.730469 4.972656 15.714844 4.972656 C 16.699219 4.972656 17.5 5.773438 17.5 6.757812 C 17.5 7.738281 16.699219 8.542969 15.714844 8.542969 L 13.929688 8.542969 Z M 13.929688 6.757812 "/>
<path style=" stroke:none;fill-rule:nonzero;fill:rgb(18.039216%,71.372549%,49.019608%);fill-opacity:1;" d="M 13.027344 6.757812 C 13.027344 7.738281 12.226562 8.542969 11.242188 8.542969 C 10.261719 8.542969 9.457031 7.738281 9.457031 6.757812 L 9.457031 2.285156 C 9.457031 1.300781 10.261719 0.5 11.242188 0.5 C 12.226562 0.5 13.027344 1.300781 13.027344 2.285156 Z M 13.027344 6.757812 "/>
<path style=" stroke:none;fill-rule:nonzero;fill:rgb(92.54902%,69.803922%,18.039216%);fill-opacity:1;" d="M 11.242188 13.929688 C 12.226562 13.929688 13.027344 14.730469 13.027344 15.714844 C 13.027344 16.699219 12.226562 17.5 11.242188 17.5 C 10.261719 17.5 9.457031 16.699219 9.457031 15.714844 L 9.457031 13.929688 Z M 11.242188 13.929688 "/>
<path style=" stroke:none;fill-rule:nonzero;fill:rgb(92.54902%,69.803922%,18.039216%);fill-opacity:1;" d="M 11.242188 13.027344 C 10.261719 13.027344 9.457031 12.226562 9.457031 11.242188 C 9.457031 10.261719 10.261719 9.457031 11.242188 9.457031 L 15.714844 9.457031 C 16.699219 9.457031 17.5 10.261719 17.5 11.242188 C 17.5 12.226562 16.699219 13.027344 15.714844 13.027344 Z M 11.242188 13.027344 "/>
</g>
</svg>
