<?xml version="1.0" encoding="UTF-8"?>
<svg xmlns="http://www.w3.org/2000/svg" xmlns:xlink="http://www.w3.org/1999/xlink" width="197px" height="43px" viewBox="0 0 196 43" version="1.1">
<g id="surface1">
<path style=" stroke:none;fill-rule:evenodd;fill:rgb(0%,47.45098%,74.901961%);fill-opacity:1;" d="M 36.242188 2.265625 L 7.007812 2.265625 C 4.492188 2.265625 2.445312 4.324219 2.445312 6.847656 L 2.445312 36.222656 C 2.445312 38.746094 4.492188 40.804688 7.007812 40.804688 L 36.265625 40.804688 C 38.78125 40.804688 40.828125 38.746094 40.828125 36.222656 L 40.828125 6.847656 C 40.804688 4.300781 38.78125 2.265625 36.242188 2.265625 Z M 18.972656 30.007812 C 18.972656 30.847656 18.296875 31.527344 17.457031 31.527344 L 11.035156 31.527344 C 10.195312 31.527344 9.519531 30.847656 9.519531 30.007812 L 9.519531 10.890625 C 9.519531 10.050781 10.195312 9.371094 11.035156 9.371094 L 17.457031 9.371094 C 18.296875 9.371094 18.972656 10.050781 18.972656 10.890625 Z M 33.730469 21.242188 C 33.730469 22.085938 33.054688 22.761719 32.214844 22.761719 L 25.792969 22.761719 C 24.953125 22.761719 24.277344 22.085938 24.277344 21.242188 L 24.277344 10.890625 C 24.277344 10.050781 24.953125 9.371094 25.792969 9.371094 L 32.214844 9.371094 C 33.054688 9.371094 33.730469 10.050781 33.730469 10.890625 Z M 33.730469 21.242188 "/>
<path style=" stroke:none;fill-rule:nonzero;fill:rgb(14.509804%,21.960784%,34.509804%);fill-opacity:1;" d="M 81.984375 5.09375 L 81.984375 12.550781 L 73.1875 12.550781 L 73.1875 40.804688 L 64.710938 40.804688 L 64.710938 12.527344 L 55.914062 12.527344 L 55.914062 5.09375 Z M 81.984375 5.09375 "/>
<path style=" stroke:none;fill-rule:nonzero;fill:rgb(14.509804%,21.960784%,34.509804%);fill-opacity:1;" d="M 92.761719 40.78125 L 84.917969 40.78125 L 84.917969 13.015625 L 92.761719 13.015625 L 92.761719 18.34375 C 94.253906 14.605469 96.625 12.363281 100.863281 12.644531 L 100.863281 20.84375 C 95.347656 20.402344 92.761719 21.78125 92.761719 26.21875 Z M 92.761719 40.78125 "/>
<path style=" stroke:none;fill-rule:nonzero;fill:rgb(14.509804%,21.960784%,34.509804%);fill-opacity:1;" d="M 143.695312 41.011719 C 138.550781 41.011719 135.335938 38.511719 135.335938 32.695312 L 135.335938 2.265625 L 143.230469 2.265625 L 143.230469 31.617188 C 143.230469 33.300781 144.347656 33.910156 145.71875 33.910156 C 146.140625 33.910156 146.417969 33.910156 146.882812 33.863281 L 146.882812 40.710938 C 146.441406 40.851562 145.277344 41.011719 143.695312 41.011719 Z M 143.695312 41.011719 "/>
<path style=" stroke:none;fill-rule:nonzero;fill:rgb(14.509804%,21.960784%,34.509804%);fill-opacity:1;" d="M 160.152344 41.011719 C 155.007812 41.011719 151.796875 38.511719 151.796875 32.695312 L 151.796875 2.265625 L 159.6875 2.265625 L 159.6875 31.617188 C 159.6875 33.300781 160.804688 33.910156 162.175781 33.910156 C 162.597656 33.910156 162.875 33.910156 163.339844 33.863281 L 163.339844 40.710938 C 162.921875 40.851562 161.734375 41.011719 160.152344 41.011719 Z M 160.152344 41.011719 "/>
<path style=" stroke:none;fill-rule:nonzero;fill:rgb(14.509804%,21.960784%,34.509804%);fill-opacity:1;" d="M 167.113281 26.875 C 167.113281 18.296875 172.046875 12.410156 180.519531 12.410156 C 188.945312 12.410156 193.8125 18.273438 193.8125 26.875 C 193.8125 35.40625 188.945312 41.433594 180.519531 41.433594 C 172.023438 41.433594 167.113281 35.40625 167.113281 26.875 Z M 174.792969 26.875 C 174.792969 31.058594 176.539062 34.375 180.519531 34.375 C 184.429688 34.375 186.128906 31.058594 186.128906 26.875 C 186.128906 22.691406 184.429688 19.488281 180.519531 19.488281 C 176.539062 19.488281 174.792969 22.691406 174.792969 26.875 Z M 174.792969 26.875 "/>
<path style=" stroke:none;fill-rule:nonzero;fill:rgb(14.509804%,21.960784%,34.509804%);fill-opacity:1;" d="M 111.453125 29.398438 C 112.96875 29.5625 115.503906 29.796875 118.066406 29.796875 C 124.070312 29.796875 129.144531 28.183594 129.144531 22.339844 C 129.144531 16.6875 123.929688 12.410156 117.667969 12.410156 C 109.21875 12.410156 103.820312 18.554688 103.820312 27.132812 C 103.820312 36.035156 108.476562 41.316406 119.019531 41.316406 C 122.253906 41.316406 125.746094 40.710938 128.191406 39.679688 L 128.191406 33.019531 C 125.492188 33.886719 122.441406 34.75 119.324219 34.75 C 115.085938 34.773438 112.175781 33.394531 111.453125 29.398438 Z M 117.484375 18.484375 C 119.695312 18.484375 121.488281 20.003906 121.488281 22.0625 C 121.488281 24.726562 118.695312 25.566406 115.457031 25.566406 C 113.828125 25.566406 112.363281 25.402344 111.363281 25.238281 C 111.523438 23.859375 111.851562 22.550781 112.457031 21.546875 C 113.574219 19.722656 115.296875 18.484375 117.484375 18.484375 Z M 117.484375 18.484375 "/>
</g>
</svg>
